<?xml version="1.0" encoding="utf-8"?>
<!-- Generator: Adobe Illustrator 24.0.1, SVG Export Plug-In . SVG Version: 6.00 Build 0)  -->
<svg version="1.1" id="Livello_1" xmlns="http://www.w3.org/2000/svg" xmlns:xlink="http://www.w3.org/1999/xlink" x="0px" y="0px"
	 viewBox="0 0 1915.4 487.3" style="enable-background:new 0 0 1915.4 487.3;" xml:space="preserve">
<style type="text/css">
	.st0{fill:none;}
	.st1{fill:#FFFFFF;}
</style>
<g id="Layer_2">
	<rect x="-127.3" y="-116.4" class="st0" width="2170" height="720"/>
</g>
<g id="Layer_1">
	<g>
		<g>
			<path class="st1" d="M881.2,206c4.9-0.6,20-1.2,27-6.1s9.6-15.4,9.6-37.8V43.7c0-11.9-3.2-20-9-24.7c-7-5.5-18.3-7-26.1-7.3v-2
				h63.6l72,152.2L1072,34.4c4.6-10.8,6.4-21.5,6.7-24.7h63.3v2c-5.2,0.3-16.3,2-21.5,3.8c-7.3,2.3-9,7.8-9,14.2v157.7
				c0,6.4,2.3,11,9,14.2c3.5,1.8,16.6,4.1,21.8,4.4v2h-95.8v-2c5.2-0.3,21.2-1.7,25.3-3.8c6.7-3.5,9.3-8.1,9.3-14.8V24.2
				l-76.4,180.6h-3.2c-3.5-11.3-9.9-27.9-15.4-40.4L921.8,27.4v134.8c0,22.1,3.5,32.2,9.9,37.5c4.9,4.1,24.7,6.1,29.9,6.4v2h-80.5
				L881.2,206L881.2,206z"/>
			<path class="st1" d="M1185.5,155.8V30c0-6.4-2.3-11-9-14.5c-5.2-2.6-15.7-3.5-20.3-3.8v-2h90.3v2c-5.2,0.3-15.7,2-20.9,3.8
				c-7.3,2.3-9,7.8-9,14.2V152c0,20.9,7.6,50.2,52.9,50.2s63.9-28.5,63.9-52.9V59.1c0-21.2-3.5-34.9-9.9-38.9
				c-9.9-6.4-22.9-8.1-29.6-8.4v-2h79.9v2c-5.2,0.3-20.6,3.2-26.7,7c-7.8,4.9-9.6,20.6-9.6,38.6v93.2c0,47.3-46.2,62.1-74.9,62.1
				C1211.6,212.7,1185.5,186,1185.5,155.8L1185.5,155.8z"/>
			<path class="st1" d="M1393,195.9l-10.2,15.1h-2.6l-2-68h2.6c13.9,36,31.7,65.1,67.7,65.1c28.8,0,40.4-19.8,40.4-41.5
				c0-17.7-11.6-31.1-29-38.1c-16.6-6.7-25.3-9.9-41.5-17.1c-22.4-9.9-34.3-25.9-34.3-51.7c0-30.8,25-53.7,58.1-53.7
				c20.6,0,38.9,7.6,49.1,15.4l10.2-14.5h2.3l1.4,65.9h-2.6c-9.6-31.7-25.8-63-61.6-63c-16,0-34,11.9-34,34.6
				c0,17.7,10.2,27.9,26.1,36.6c14.2,7.8,26.4,10.8,39.5,16.9c25,11.6,40.9,22.9,40.9,53.7c0,35.4-28.2,60.4-65.6,60.4
				C1422.3,211.8,1401.7,202.8,1393,195.9L1393,195.9z"/>
			<path class="st1" d="M1527.1,206c5.2-0.3,18.6-1.7,22.9-3.5c7-2.6,9-7.5,9-14.2V31.2c0-6.4-1.7-12.2-9-15.1
				c-5.5-2.3-17.7-4.1-22.9-4.4v-2h160v45h-2.6c-3.2-12.8-20-38.9-32.5-40.7c-7-0.9-20-1.2-29.3-1.2h-32.8v90.6h29
				c16.3,0,20.9-5.8,24.4-9.3c4.4-4.4,9.6-21.2,10.5-28.8h2.6v81h-2.6c-0.6-8.4-7-26.4-10.5-30.2c-3.8-4.1-8.7-9.3-24.4-9.3h-29
				v71.2c0,23.8,5.2,26.4,34.6,26.4c20.3,0,42.4,0.6,49.4-6.7c8.7-9,23.5-36.9,26.4-45.6h2.6l-3.8,55.8h-171.9L1527.1,206
				L1527.1,206z"/>
			<path class="st1" d="M1743.4,185.4c-19.2-18-31.1-42.7-31.1-74.4s9.3-56.9,28.2-75.8c19.8-20,45.3-30.2,73.5-30.2s52,9,73.8,30.2
				c17.1,17.1,27.6,43.8,27.6,72.3c0,30.2-8.7,56.9-30.2,77.3c-18.6,17.7-42.4,27.9-72.3,27.9
				C1786.4,212.7,1762.3,203.2,1743.4,185.4L1743.4,185.4z M1880.2,108.5c0-50.2-18-99.9-66.2-99.9c-41.2,0-66.5,38-66.5,101.1
				c0,54.6,21.2,99.6,66.5,99.6S1880.2,165.4,1880.2,108.5z"/>
			<path class="st1" d="M886.7,381.3c0-59.8,43.8-105.4,102.2-105.4c24.7,0,42.1,8.4,50.8,16.5l11-15.7h2.6l1.2,71.7h-2.6
				c-10.5-33.7-32.8-68.5-70.3-68.5s-60.1,33.1-60.1,99c0,52.6,26.1,92.7,69.7,92.7c35.4,0,56.3-20.3,67.7-45.6l3.2,1.7
				c-11.9,27-35.1,54.6-79.3,54.6C925.6,482.3,886.7,442.8,886.7,381.3L886.7,381.3z"/>
			<path class="st1" d="M1081.7,476c5.2-0.3,17.4-1.5,21.2-2.9c7-2.6,9-7.8,9-14.2V301.1c0-6.4-2-12.2-9-15.1
				c-4.9-2-16-4.1-21.2-4.4v-2h91.2v2c-5.2,0.3-16,2-21.2,3.8c-7.3,2.3-9,7.8-9,14.2v157.7c0,6.4,2.3,12.2,9,15.1
				c3.5,1.5,16,3.2,21.2,3.5v2h-91.2V476z"/>
			<path class="st1" d="M1212.6,301.1c-2.3-6.1-4.9-10.8-11.9-14.8c-5.2-2.9-12.2-4.4-17.7-4.6v-2h90v2
				c-16.3,0.9-29.6,3.8-29.6,10.8c0,2,0.6,4.9,1.4,7.3c4.4,12.2,31.4,75.5,55.5,140.6l49.1-116.8c6.1-14.5,7-23.5,7-27
				c0-9.6-13.1-13.4-35.4-14.8v-2h72.3v2c-5.5,0.3-11.6,2.3-16.8,5.2c-7.6,4.4-11.6,12.8-15.7,21.8c-11.9,27.6-49.9,117-72.6,171.7
				h-4.9C1256.1,405.1,1222.4,327.6,1212.6,301.1L1212.6,301.1z"/>
			<path class="st1" d="M1401.5,476c5.2-0.3,17.4-1.5,21.2-2.9c7-2.6,9-7.8,9-14.2V301.1c0-6.4-2-12.2-9-15.1
				c-4.9-2-16-4.1-21.2-4.4v-2h91.2v2c-5.2,0.3-16,2-21.2,3.8c-7.3,2.3-9,7.8-9,14.2v157.7c0,6.4,2.3,12.2,9,15.1
				c3.5,1.5,16,3.2,21.2,3.5v2h-91.2V476z"/>
			<path class="st1" d="M1519.6,381.3c0-59.8,43.8-105.4,102.2-105.4c24.7,0,42.1,8.4,50.8,16.5l11-15.7h2.6l1.2,71.7h-2.6
				c-10.5-33.7-32.8-68.5-70.3-68.5s-60.1,33.1-60.1,99c0,52.6,26.1,92.7,69.7,92.7c35.4,0,56.3-20.3,67.7-45.6l3.2,1.7
				c-11.9,27-35.1,54.6-79.3,54.6C1558.5,482.3,1519.6,442.8,1519.6,381.3L1519.6,381.3z"/>
			<path class="st1" d="M1743.4,455.3c-19.2-18-31.1-42.7-31.1-74.4s9.3-56.9,28.2-75.8c19.8-20,45.3-30.2,73.5-30.2s52,9,73.8,30.2
				c17.1,17.1,27.6,43.9,27.6,72.3c0,30.2-8.7,56.9-30.2,77.2c-18.6,17.7-42.4,27.9-72.3,27.9
				C1786.4,482.6,1762.3,473.1,1743.4,455.3L1743.4,455.3z M1880.2,378.4c0-50.2-18-99.9-66.2-99.9c-41.2,0-66.5,38-66.5,101.1
				c0,54.6,21.2,99.6,66.5,99.6S1880.2,435.3,1880.2,378.4z"/>
		</g>
		<g>
			<path class="st1" d="M3.4,9.6v4.8c18.5,0.7,45.2,4.1,61.7,17.1c13.7,11,21.2,30.1,21.2,58.2v279.6c0,52.8-6.2,77.4-22.6,89.1
				s-52.1,13-63.7,14.4v4.8h189.8v-4.8c-12.3-0.7-58.9-5.5-70.6-15.1C104.2,445.5,96,421.5,96,369.4v-318l151.5,323.5
				c13,29.5,28.1,68.5,36.3,95.3h7.5l37.9-89.5L153.5,9.6H3.4z"/>
			<path class="st1" d="M746.8,354.3C720,414,670.7,461.9,587.1,461.9c-102.8,0-164.5-94.6-164.5-218.6
				c0-155.6,57.6-233.7,141.9-233.7s141.2,82.2,165.9,161.7h6.2L733.7,2h-6.2l-26,37C681,19.9,639.8,0,581.6,0
				C443.8,0,340.3,107.6,340.3,248.8s91.8,238.5,226.8,238.5c104.2,0,159-65.1,187.1-128.9L746.8,354.3L746.8,354.3z"/>
			<path class="st1" d="M607.1,256.9l11.2,5.5l28.4-18.8l-28.4-18.8l-11.2,5.5c-6.5,3.2-13.4-3.7-10.2-10.2l5.5-11.2l-18.8-28.4
				L564.8,209l5.5,11.2c3.2,6.5-3.7,13.4-10.2,10.2l-11.2-5.5l-28.4,18.8l28.4,18.8l11.2-5.5c6.5-3.2,13.4,3.7,10.2,10.2l-5.5,11.2
				l18.8,28.4l18.8-28.4l-5.5-11.2C593.7,260.6,600.6,253.7,607.1,256.9z"/>
		</g>
	</g>
</g>
</svg>
