<?xml version="1.0" encoding="utf-8"?>
<!-- Generator: Adobe Illustrator 24.0.1, SVG Export Plug-In . SVG Version: 6.00 Build 0)  -->
<svg version="1.1" id="Livello_1" xmlns="http://www.w3.org/2000/svg" xmlns:xlink="http://www.w3.org/1999/xlink" x="0px" y="0px"
	 viewBox="0 0 744.6 473.5" style="enable-background:new 0 0 744.6 473.5;" xml:space="preserve">
<style type="text/css">
	.st0{fill:none;}
	.st1{fill:#863724;}
</style>
<g id="Layer_2">
	<rect x="-129.3" y="-118.5" class="st0" width="1000" height="720"/>
</g>
<g id="Layer_1">
	<g>
		<path class="st1" d="M0.3,9.5v4.8c18.3,0.7,44.8,4.1,61.1,17C75,42.1,82.5,61.1,82.5,89v277.2c0,52.3-6.1,76.8-22.4,88.3
			C43.8,466,8.4,467.4-3.1,468.8v4.8h188.2v-4.8c-12.2-0.7-58.4-5.4-70-15c-14.9-12.2-23.1-36-23.1-87.6V50.9l150.1,320.7
			c12.9,29.2,27.9,67.9,36,94.4h7.5l37.5-88.7L149.1,9.5H0.3L0.3,9.5z"/>
		<path class="st1" d="M737.1,351.2c-26.5,59.1-75.4,106.7-158.3,106.7c-101.9,0-163-93.8-163-216.7C415.8,87,472.8,9.5,556.4,9.5
			s140,81.5,164.4,160.3h6.1L724.2,2h-6.1l-25.8,36.7C671.9,19.7,631.1,0,573.4,0C436.8,0,334.2,106.7,334.2,246.6
			S425.3,483,559.1,483c103.3,0,157.6-64.5,185.5-127.7L737.1,351.2L737.1,351.2z"/>
		<path class="st1" d="M598.9,254.8l11.2,5.6l28.4-18.9l-28.4-18.9l-11.2,5.6c-6.5,3.2-13.5-3.7-10.2-10.2l5.6-11.2l-18.8-28.4
			l-18.8,28.4l5.6,11.2c3.2,6.5-3.7,13.5-10.2,10.2l-11.2-5.6l-28.4,18.9l28.4,18.9l11.2-5.6c6.5-3.2,13.5,3.7,10.2,10.2l-5.6,11.2
			l18.8,28.4l18.8-28.4l-5.6-11.2C585.4,258.5,592.4,251.6,598.9,254.8L598.9,254.8z"/>
	</g>
</g>
</svg>
